HIERARCHY
ROOT Hips
{
  OFFSET -258.878 73.3969 767.956
  CHANNELS 6 Xposition Yposition Zposition Zrotation Xrotation Yrotation
  JOINT Spine
  {
    OFFSET 1.01188e-05 8 1.11689e-05
    CHANNELS 6 Xposition Yposition Zposition Zrotation Xrotation Yrotation
    JOINT Spine1
    {
      OFFSET -1.46292e-05 8 -3.41038e-05
      CHANNELS 6 Xposition Yposition Zposition Zrotation Xrotation Yrotation
      JOINT Spine2
      {
        OFFSET 0 8 0
        CHANNELS 6 Xposition Yposition Zposition Zrotation Xrotation Yrotation
        JOINT Spine3
        {
          OFFSET 0 8 0
          CHANNELS 6 Xposition Yposition Zposition Zrotation Xrotation Yrotation
          JOINT Neck
          {
            OFFSET -0.000166333 17 -8.10048e-05
            CHANNELS 6 Xposition Yposition Zposition Zrotation Xrotation Yrotation
            JOINT Head
            {
              OFFSET 0 10.8 1.47861e-05
              CHANNELS 6 Xposition Yposition Zposition Zrotation Xrotation Yrotation
              End Site
              {
                OFFSET 0 20.25 0
              }
            }
          }
          JOINT LeftShoulder
          {
            OFFSET 4.99983 17.0001 0
            CHANNELS 6 Xposition Yposition Zposition Zrotation Xrotation Yrotation
            JOINT LeftShoulder2
            {
              OFFSET 6.45 0 0
              CHANNELS 6 Xposition Yposition Zposition Zrotation Xrotation Yrotation
              JOINT LeftArm
              {
                OFFSET 6.44996 5.09859e-05 0.000459944
                CHANNELS 6 Xposition Yposition Zposition Zrotation Xrotation Yrotation
                JOINT LeftForeArm
                {
                  OFFSET -1.25683e-05 -32.4 -2
                  CHANNELS 6 Xposition Yposition Zposition Zrotation Xrotation Yrotation
                  JOINT LeftHand
                  {
                    OFFSET 0 -25.65 2.00002
                    CHANNELS 6 Xposition Yposition Zposition Zrotation Xrotation Yrotation
                    JOINT LeftHandThumb1
                    {
                      OFFSET -0.500002 -1.49999 2.64999
                      CHANNELS 6 Xposition Yposition Zposition Zrotation Xrotation Yrotation
                      JOINT LeftHandThumb2
                      {
                        OFFSET 0 -3.80001 3.69999
                        CHANNELS 6 Xposition Yposition Zposition Zrotation Xrotation Yrotation
                        JOINT LeftHandThumb3
                        {
                          OFFSET 1.22459e-05 -3.00002 2.70001
                          CHANNELS 6 Xposition Yposition Zposition Zrotation Xrotation Yrotation
                          End Site
                          {
                            OFFSET 0 -2.29999 1.8
                          }
                        }
                      }
                    }
                    JOINT LeftHandIndex
                    {
                      OFFSET 0 -1.90002 1.59999
                      CHANNELS 6 Xposition Yposition Zposition Zrotation Xrotation Yrotation
                      JOINT LeftHandIndex1
                      {
                        OFFSET -1.36592e-05 -8.3 1.89999
                        CHANNELS 6 Xposition Yposition Zposition Zrotation Xrotation Yrotation
                        JOINT LeftHandIndex2
                        {
                          OFFSET 3.65074e-05 -4.49997 1.08723e-05
                          CHANNELS 6 Xposition Yposition Zposition Zrotation Xrotation Yrotation
                          JOINT LeftHandIndex3
                          {
                            OFFSET 2.11164e-05 -3.4 1.07823e-05
                            CHANNELS 6 Xposition Yposition Zposition Zrotation Xrotation Yrotation
                            End Site
                            {
                              OFFSET 0 -2.60001 0
                            }
                          }
                        }
                      }
                    }
                    JOINT LeftHandMiddle
                    {
                      OFFSET -0.249994 -2.20002 0.399998
                      CHANNELS 6 Xposition Yposition Zposition Zrotation Xrotation Yrotation
                      JOINT LeftHandMiddle1
                      {
                        OFFSET 0 -8.29999 0.999996
                        CHANNELS 6 Xposition Yposition Zposition Zrotation Xrotation Yrotation
                        JOINT LeftHandMiddle2
                        {
                          OFFSET 2.00897e-05 -4.65002 0
                          CHANNELS 6 Xposition Yposition Zposition Zrotation Xrotation Yrotation
                          JOINT LeftHandMiddle3
                          {
                            OFFSET -1.36e-05 -3.29999 -1.08885e-05
                            CHANNELS 6 Xposition Yposition Zposition Zrotation Xrotation Yrotation
                            End Site
                            {
                              OFFSET -6.42632e-05 -2.7 0
                            }
                          }
                        }
                      }
                    }
                    JOINT LeftHandRing
                    {
                      OFFSET -0.499995 -2.15001 -0.800007
                      CHANNELS 6 Xposition Yposition Zposition Zrotation Xrotation Yrotation
                      JOINT LeftHandRing1
                      {
                        OFFSET 0 -7.75002 -0.199993
                        CHANNELS 6 Xposition Yposition Zposition Zrotation Xrotation Yrotation
                        JOINT LeftHandRing2
                        {
                          OFFSET 2.16893e-05 -3.8 0
                          CHANNELS 6 Xposition Yposition Zposition Zrotation Xrotation Yrotation
                          JOINT LeftHandRing3
                          {
                            OFFSET -2.2679e-05 -3.40004 -2.222e-05
                            CHANNELS 6 Xposition Yposition Zposition Zrotation Xrotation Yrotation
                            End Site
                            {
                              OFFSET 0 -2.59997 1.59421e-05
                            }
                          }
                        }
                      }
                    }
                    JOINT LeftHandPinky
                    {
                      OFFSET -0.749991 -1.75003 -1.85001
                      CHANNELS 6 Xposition Yposition Zposition Zrotation Xrotation Yrotation
                      JOINT LeftHandPinky1
                      {
                        OFFSET 0 -7.15001 -1
                        CHANNELS 6 Xposition Yposition Zposition Zrotation Xrotation Yrotation
                        JOINT LeftHandPinky2
                        {
                          OFFSET 1.70006e-05 -3 0
                          CHANNELS 6 Xposition Yposition Zposition Zrotation Xrotation Yrotation
                          JOINT LeftHandPinky3
                          {
                            OFFSET 0 -2.35 0
                            CHANNELS 6 Xposition Yposition Zposition Zrotation Xrotation Yrotation
                            End Site
                            {
                              OFFSET -1.90867e-05 -2.1 2.09437e-05
                            }
                          }
                        }
                      }
                    }
                  }
                }
              }
            }
          }
          JOINT RightShoulder
          {
            OFFSET -5.00018 17 -2.07164e-05
            CHANNELS 6 Xposition Yposition Zposition Zrotation Xrotation Yrotation
            JOINT RightShoulder2
            {
              OFFSET -6.45 0 0
              CHANNELS 6 Xposition Yposition Zposition Zrotation Xrotation Yrotation
              JOINT RightArm
              {
                OFFSET -6.45 -8.62299e-05 -0.000411447
                CHANNELS 6 Xposition Yposition Zposition Zrotation Xrotation Yrotation
                JOINT RightForeArm
                {
                  OFFSET 1.14964e-05 -32.4 -1.99999
                  CHANNELS 6 Xposition Yposition Zposition Zrotation Xrotation Yrotation
                  JOINT RightHand
                  {
                    OFFSET 0 -25.65 2
                    CHANNELS 6 Xposition Yposition Zposition Zrotation Xrotation Yrotation
                    JOINT RightHandThumb1
                    {
                      OFFSET 0.499965 -1.49999 2.65002
                      CHANNELS 6 Xposition Yposition Zposition Zrotation Xrotation Yrotation
                      JOINT RightHandThumb2
                      {
                        OFFSET 4.76464e-05 -3.8 3.69998
                        CHANNELS 6 Xposition Yposition Zposition Zrotation Xrotation Yrotation
                        JOINT RightHandThumb3
                        {
                          OFFSET -1.40744e-05 -3 2.7
                          CHANNELS 6 Xposition Yposition Zposition Zrotation Xrotation Yrotation
                          End Site
                          {
                            OFFSET -1.15659e-05 -2.29999 1.79999
                          }
                        }
                      }
                    }
                    JOINT RightHandIndex
                    {
                      OFFSET 0 -1.89999 1.59999
                      CHANNELS 6 Xposition Yposition Zposition Zrotation Xrotation Yrotation
                      JOINT RightHandIndex1
                      {
                        OFFSET -2.05033e-05 -8.29999 1.90003
                        CHANNELS 6 Xposition Yposition Zposition Zrotation Xrotation Yrotation
                        JOINT RightHandIndex2
                        {
                          OFFSET 2.18924e-05 -4.50001 -1.61477e-05
                          CHANNELS 6 Xposition Yposition Zposition Zrotation Xrotation Yrotation
                          JOINT RightHandIndex3
                          {
                            OFFSET 4.60695e-05 -3.39999 1.4355e-05
                            CHANNELS 6 Xposition Yposition Zposition Zrotation Xrotation Yrotation
                            End Site
                            {
                              OFFSET -2.2387e-05 -2.59998 1.79541e-05
                            }
                          }
                        }
                      }
                    }
                    JOINT RightHandMiddle
                    {
                      OFFSET 0.249959 -2.19999 0.400014
                      CHANNELS 6 Xposition Yposition Zposition Zrotation Xrotation Yrotation
                      JOINT RightHandMiddle1
                      {
                        OFFSET 0 -8.3 1
                        CHANNELS 6 Xposition Yposition Zposition Zrotation Xrotation Yrotation
                        JOINT RightHandMiddle2
                        {
                          OFFSET -5.20448e-05 -4.65 0
                          CHANNELS 6 Xposition Yposition Zposition Zrotation Xrotation Yrotation
                          JOINT RightHandMiddle3
                          {
                            OFFSET 3.23744e-05 -3.30001 0
                            CHANNELS 6 Xposition Yposition Zposition Zrotation Xrotation Yrotation
                            End Site
                            {
                              OFFSET 0 -2.69999 0
                            }
                          }
                        }
                      }
                    }
                    JOINT RightHandRing
                    {
                      OFFSET 0.499985 -2.15 -0.799996
                      CHANNELS 6 Xposition Yposition Zposition Zrotation Xrotation Yrotation
                      JOINT RightHandRing1
                      {
                        OFFSET -1.1145e-05 -7.74999 -0.199986
                        CHANNELS 6 Xposition Yposition Zposition Zrotation Xrotation Yrotation
                        JOINT RightHandRing2
                        {
                          OFFSET 0 -3.80001 0
                          CHANNELS 6 Xposition Yposition Zposition Zrotation Xrotation Yrotation
                          JOINT RightHandRing3
                          {
                            OFFSET 0 -3.40001 0
                            CHANNELS 6 Xposition Yposition Zposition Zrotation Xrotation Yrotation
                            End Site
                            {
                              OFFSET 0 -2.59998 -1.04394e-05
                            }
                          }
                        }
                      }
                    }
                    JOINT RightHandPinky
                    {
                      OFFSET 0.74999 -1.75 -1.85
                      CHANNELS 6 Xposition Yposition Zposition Zrotation Xrotation Yrotation
                      JOINT RightHandPinky1
                      {
                        OFFSET 0 -7.15 -0.99999
                        CHANNELS 6 Xposition Yposition Zposition Zrotation Xrotation Yrotation
                        JOINT RightHandPinky2
                        {
                          OFFSET 0 -3.00001 0
                          CHANNELS 6 Xposition Yposition Zposition Zrotation Xrotation Yrotation
                          JOINT RightHandPinky3
                          {
                            OFFSET -1.09066e-05 -2.34997 1.35396e-05
                            CHANNELS 6 Xposition Yposition Zposition Zrotation Xrotation Yrotation
                            End Site
                            {
                              OFFSET 1.69273e-05 -2.09999 -4.95671e-05
                            }
                          }
                        }
                      }
                    }
                  }
                }
              }
            }
          }
        }
      }
    }
  }
  JOINT LeftUpLeg
  {
    OFFSET 8 0 -1.55275e-05
    CHANNELS 6 Xposition Yposition Zposition Zrotation Xrotation Yrotation
    JOINT LeftLeg
    {
      OFFSET -1.58931e-05 -45 -0.999982
      CHANNELS 6 Xposition Yposition Zposition Zrotation Xrotation Yrotation
      JOINT LeftFoot
      {
        OFFSET 1.12703e-05 -41 -2.00003
        CHANNELS 6 Xposition Yposition Zposition Zrotation Xrotation Yrotation
        JOINT LeftToeBase
        {
          OFFSET -1.2477e-05 -7.5 12.5
          CHANNELS 6 Xposition Yposition Zposition Zrotation Xrotation Yrotation
          JOINT LeftFootToe
          {
            OFFSET 0 0 4
            CHANNELS 6 Xposition Yposition Zposition Zrotation Xrotation Yrotation
            End Site
            {
              OFFSET 0 0 0
            }
          }
        }
      }
    }
  }
  JOINT RightUpLeg
  {
    OFFSET -8 0 1.55275e-05
    CHANNELS 6 Xposition Yposition Zposition Zrotation Xrotation Yrotation
    JOINT RightLeg
    {
      OFFSET 1.32755e-05 -45 -1.00002
      CHANNELS 6 Xposition Yposition Zposition Zrotation Xrotation Yrotation
      JOINT RightFoot
      {
        OFFSET 1.5476e-05 -41 -1.99997
        CHANNELS 6 Xposition Yposition Zposition Zrotation Xrotation Yrotation
        JOINT RightToeBase
        {
          OFFSET 0 -7.50001 12.5
          CHANNELS 6 Xposition Yposition Zposition Zrotation Xrotation Yrotation
          JOINT RightFootToe
          {
            OFFSET 0 0 4
            CHANNELS 6 Xposition Yposition Zposition Zrotation Xrotation Yrotation
            End Site
            {
              OFFSET 0 0 0
            }
          }
        }
      }
    }
  }
}
MOTION
Frames:	3
Frame Time:	0.0111111
-258.885 73.3964 767.956 -0.0322839 7.12785 -172.335 -5.68434e-14 8 0 -0.565287 8.37182 -7.49041 0 8 -2.27374e-13 0.727835 4.06371 -3.3808 5.68434e-14 8 0 0.335554 2.03831 -1.68363 0 8 -1.13687e-13 0.334796 2.03583 -1.68194 0 17 0 1.30321 4.2424 -7.73116 5.68434e-14 10.8 0 4.18181 -1.55059 -17.7667 5 17 0 1.40219 3.1885 -11.1037 6.45 1.42109e-14 0 -0.18827 -0.620123 3.23048 6.45 -5.68434e-14 0 74.6356 -15.9631 5.74756 -5.68434e-14 -32.4 -2 -1.42166 -57.7995 -1.21335 -2.84217e-14 -25.65 2 -12.0658 -12.8102 -30.7428 -0.5 -1.5 2.65 8.61811 -9.4629 4.29762 -1.42109e-14 -3.8 3.7 0.0377043 40.5488 -0.166116 4.26326e-14 -3 2.7 -0.0141817 -0.413359 0.00717876 2.84217e-14 -1.9 1.6 -0 0 7.95139e-16 -2.84217e-14 -8.3 1.9 -2.20796 8.0285 0.35894 0 -4.5 0 -70.5775 0.0226604 0.0145074 0 -3.4 0 -52.6728 0.0015018 0.0301463 -0.25 -2.2 0.4 -0 0 7.95139e-16 -5.68434e-14 -8.3 1 -20.4941 21.8137 5.72428 -5.68434e-14 -4.65 0 -25.3025 -0.00586957 -0.00140471 0 -3.3 -5.68434e-14 -19.2413 -0.0170053 -0.0146007 -0.5 -2.15 -0.8 -0 0 7.95139e-16 0 -7.75 -0.2 -66.4837 13.658 14.8908 0 -3.8 -5.68434e-14 -58.5977 -0.033388 -0.0249659 0 -3.4 0 -40.9607 -0.00948762 -0.031161 -0.75 -1.75 -1.85 -0 0 7.95139e-16 -5.68434e-14 -7.15 -1 -80.3134 12.9836 21.2788 0 -3 -5.68434e-14 -0.649121 -0.0217923 -0.000943571 0 -2.35 0 -0.610206 -0.021352 -0.000934494 -5 17 -1.13687e-13 11.1895 -2.88649 -4.39183 -6.45 0 -1.13687e-13 -2.87909 0.455834 -5.518 -6.45 2.84217e-14 0 -22.1188 4.73725 -38.9842 5.68434e-14 -32.4 -2 -27.9471 -38.7518 -47.0827 -1.13687e-13 -25.65 2 22.6385 -8.03367 -37.8274 0.5 -1.5 2.65 13.7663 -10.1538 15.2325 -1.13687e-13 -3.8 3.7 2.14188 18.9175 -0.547202 0 -3 2.7 0.195903 34.7455 -0.154782 0 -1.9 1.6 -2.79311e-07 2.90252e-06 3.23764e-07 0 -8.3 1.9 3.54409 15.2116 -0.49579 0 -4.5 -2.84217e-14 16.4937 0.00437791 0.00713632 -5.68434e-14 -3.4 8.52651e-14 11.3453 -0.00470801 0.0038818 0.25 -2.2 0.4 -2.79311e-07 2.90252e-06 3.23764e-07 0 -8.3 1 14.7106 18.9433 -3.55809 -5.68434e-14 -4.65 2.84217e-14 3.07925 -0.0103719 0.0575412 1.13687e-13 -3.3 2.84217e-14 -0.0105309 -0.0109853 0.0558098 0.5 -2.15 -0.8 -2.79311e-07 2.90252e-06 3.23764e-07 0 -7.75 -0.2 34.3128 23.4139 -10.2782 0 -3.8 0 0.0141657 -0.0269699 0.00317377 -2.84217e-14 -3.4 -2.84217e-14 -0.00258627 -0.0152916 0.116599 0.75 -1.75 -1.85 -2.79311e-07 2.90252e-06 3.23764e-07 0 -7.15 -1 59.0007 22.963 -18.4678 0 -3 -2.84217e-14 0.0016483 2.24728e-05 0.0334345 -1.42109e-14 -2.35 0 -1.23424e-06 -2.42428e-05 0.0506702 8 0 0 18.8538 -49.374 25.8715 -1.13687e-13 -45 -1 -1.96543 42.3512 -5.46572 5.68434e-14 -41 -2 3.11761 14.4718 6.27908 1.13687e-13 -7.5 12.5 -5.16027e-09 -1.26564e-05 -8.48529e-08 1.13687e-13 0 4 -12.0011 -10.18 -10.5535 -8 0 0 10.4156 -49.6539 7.83787 0 -45 -1 -1.4736 81.3797 1.76685 -5.68434e-14 -41 -2 -10.0725 -1.90554 17.0834 0 -7.5 12.5 1.7979e-06 -23.1267 3.95555e-06 0 -4.44089e-16 4 6.16759 23.8802 10.7125 
-259.036 73.4342 767.908 0.0703161 7.09827 -172.405 0 8 0 -0.676028 8.36028 -7.5514 0 8 -1.13687e-13 0.734157 4.0318 -3.38131 2.84217e-14 8 0 0.338068 2.02239 -1.68361 -2.84217e-14 8 -1.13687e-13 0.33587 2.01989 -1.68197 5.68434e-14 17 0 1.17089 4.26029 -7.61075 -2.84217e-14 10.8 0 4.11427 -1.54525 -17.4985 5 17 -1.13687e-13 1.38434 3.14992 -11.0406 6.45 0 1.13687e-13 -0.174439 -0.625958 3.21606 6.45 -4.26326e-14 0 75.4311 -16.6776 5.19982 2.84217e-14 -32.4 -2 -1.81564 -56.8072 -1.18282 0 -25.65 2 -13.393 -13.7379 -31.3434 -0.5 -1.5 2.65 9.01118 -9.20464 4.59341 -1.42109e-14 -3.8 3.7 -0.030375 42.1851 -0.0898646 4.26326e-14 -3 2.7 -0.0141817 -0.413359 0.00717876 -2.84217e-14 -1.9 1.6 1.32417e-31 -3.18055e-15 2.38542e-15 0 -8.3 1.9 -2.40384 8.37118 0.346578 0 -4.5 0 -70.2981 -0.00755022 0.00385142 0 -3.4 2.84217e-14 -52.3697 -0.0108018 -0.00380054 -0.25 -2.2 0.4 1.32417e-31 -3.18055e-15 2.38542e-15 -2.84217e-14 -8.3 1 -20.9518 22.2211 5.9072 0 -4.65 5.68434e-14 -25.2478 -0.0140123 -0.00140471 0 -3.3 5.68434e-14 -19.2081 -0.0170053 -0.0146007 -0.5 -2.15 -0.8 1.32417e-31 -3.18055e-15 2.38542e-15 0 -7.75 -0.2 -67.2218 13.3379 14.9042 1.13687e-13 -3.8 -5.68434e-14 -57.8113 -0.06778 -0.0546296 0 -3.4 5.68434e-14 -40.3601 -0.0148129 -0.0658168 -0.75 -1.75 -1.85 1.32417e-31 -3.18055e-15 2.38542e-15 0 -7.15 -1 -80.8605 12.3996 21.0486 1.13687e-13 -3 0 -0.498426 -0.0194097 -0.000943571 0 -2.35 0 -0.461907 -0.0190413 -0.000934494 -5 17 1.13687e-13 11.1941 -2.95978 -4.42353 -6.45 2.84217e-14 0 -2.87711 0.455541 -5.48423 -6.45 2.84217e-14 0 -21.7036 5.1413 -38.6344 1.13687e-13 -32.4 -2 -29.4301 -40.4384 -48.4823 0 -25.65 2 23.4927 -8.16493 -38.7648 0.5 -1.5 2.65 13.3402 -10.4342 15.1914 1.13687e-13 -3.8 3.7 2.06706 18.7486 -0.541714 -1.13687e-13 -3 2.7 0.195445 34.8878 -0.158493 0 -1.9 1.6 -2.79311e-07 2.90252e-06 3.23764e-07 1.13687e-13 -8.3 1.9 4.03339 16.1934 -0.60743 0 -4.5 0 15.9122 0.00437791 0.00713632 5.68434e-14 -3.4 0 10.9085 -0.00286884 0.0038818 0.25 -2.2 0.4 -2.79311e-07 2.90252e-06 3.23764e-07 1.13687e-13 -8.3 1 14.8097 19.5483 -3.64664 -5.68434e-14 -4.65 -5.68434e-14 3.07925 -0.0103719 0.0603147 0 -3.3 0 -0.0105303 -0.0109853 0.0584846 0.5 -2.15 -0.8 -2.79311e-07 2.90252e-06 3.23764e-07 0 -7.75 -0.2 33.9107 23.661 -10.212 0 -3.8 -2.84217e-14 0.0141657 -0.0269699 0.00317377 0 -3.4 -2.84217e-14 -0.00258481 -0.0152915 0.122075 0.75 -1.75 -1.85 -2.79311e-07 2.90252e-06 3.23764e-07 1.13687e-13 -7.15 -1 58.1683 23.0334 -18.1643 0 -3 -5.68434e-14 0.0016483 2.24728e-05 0.0334345 0 -2.35 -2.84217e-14 -1.23339e-06 -2.42428e-05 0.0526867 8 0 0 18.9652 -49.4972 26.129 0 -45 -1 -1.90872 42.5894 -5.64033 1.13687e-13 -41 -2 3.14263 14.0067 6.33398 0 -7.5 12.5 -5.16027e-09 -1.26564e-05 -8.48529e-08 0 0 4 -11.7938 -9.84869 -10.4642 -8 0 0 10.2431 -49.6244 7.63706 0 -45 -1 -1.29971 81.3347 1.56005 0 -41 -2 -10.085 -1.98467 17.2706 0 -7.5 12.5 1.80034e-06 -23.1592 3.95651e-06 0 0 4 6.19641 23.9241 10.7016 
-259.196 73.4717 767.863 0.16987 7.06614 -172.483 0 8 0 -0.776208 8.34966 -7.61219 2.84217e-14 8 0 0.741345 3.99975 -3.38064 0 8 0 0.341238 2.00639 -1.6836 -2.84217e-14 8 1.13687e-13 0.340427 2.00421 -1.68188 0 17 0 1.04127 4.27483 -7.49055 -2.84217e-14 10.8 0 4.03475 -1.5406 -17.2312 5 17 -1.13687e-13 1.36089 3.11008 -10.9722 6.45 -1.42109e-14 -1.13687e-13 -0.162589 -0.628931 3.21109 6.45 -4.26326e-14 0 76.126 -17.3279 4.70145 -5.68434e-14 -32.4 -2 -2.19907 -55.8259 -1.18132 2.84217e-14 -25.65 2 -14.6165 -14.6824 -31.8662 -0.5 -1.5 2.65 9.57882 -8.87347 4.9782 -2.84217e-14 -3.8 3.7 -0.0839055 43.6039 -0.0268761 2.84217e-14 -3 2.7 -0.0141817 -0.413359 0.00717876 -2.84217e-14 -1.9 1.6 -3.18055e-15 6.36111e-15 2.38542e-15 -5.68434e-14 -8.3 1.9 -2.83066 8.84612 0.375224 2.84217e-14 -4.5 0 -69.8647 -0.0288109 -0.00463983 0 -3.4 0 -51.8933 -0.0183153 -0.0285532 -0.25 -2.2 0.4 -3.18055e-15 6.36111e-15 2.38542e-15 2.84217e-14 -8.3 1 -21.5762 22.642 6.13055 0 -4.65 5.68434e-14 -25.0728 -0.0211359 -0.00140471 1.13687e-13 -3.3 5.68434e-14 -19.099 -0.0170053 -0.0146007 -0.5 -2.15 -0.8 -3.18055e-15 6.36111e-15 2.38542e-15 0 -7.75 -0.2 -67.91 12.987 14.862 0 -3.8 5.68434e-14 -56.847 -0.0951933 -0.075987 0 -3.4 0 -39.6298 -0.0202819 -0.0915643 -0.75 -1.75 -1.85 -3.18055e-15 6.36111e-15 2.38542e-15 0 -7.15 -1 -81.2395 11.9305 20.8239 1.13687e-13 -3 -5.68434e-14 -0.358983 -0.016451 -0.000943571 -1.13687e-13 -2.35 0 -0.324635 -0.0161579 -0.000934494 -5 17 0 11.1941 -3.03688 -4.44707 -6.45 0 0 -2.87522 0.455276 -5.44302 -6.45 4.26326e-14 0 -21.2583 5.51263 -38.2922 0 -32.4 -2 -30.9825 -42.0848 -50.0218 -1.13687e-13 -25.65 2 24.4064 -8.47522 -39.6412 0.5 -1.5 2.65 12.7812 -10.7977 15.1137 0 -3.8 3.7 1.96617 18.4805 -0.534192 0 -3 2.7 0.183268 34.5146 -0.17712 1.13687e-13 -1.9 1.6 -2.79311e-07 2.90252e-06 3.23764e-07 0 -8.3 1.9 4.54583 17.1584 -0.728074 0 -4.5 0 15.4075 0.00437791 0.00713632 0 -3.4 0 10.5306 -0.00107364 0.0038818 0.25 -2.2 0.4 -2.79311e-07 2.90252e-06 3.23764e-07 0 -8.3 1 14.8476 20.119 -3.71284 0 -4.65 0 3.07925 -0.0103719 0.0630772 0 -3.3 0 -0.0105298 -0.0109853 0.0611472 0.5 -2.15 -0.8 -2.79311e-07 2.90252e-06 3.23764e-07 -1.13687e-13 -7.75 -0.2 33.33 23.8828 -10.0802 -5.68434e-14 -3.8 0 0.0141657 -0.0269699 0.00317377 2.84217e-14 -3.4 0 -0.00258335 -0.0152915 0.127542 0.75 -1.75 -1.85 -2.79311e-07 2.90252e-06 3.23764e-07 -1.13687e-13 -7.15 -1 56.9374 23.138 -17.7425 0 -3 -2.84217e-14 0.0016483 2.24728e-05 0.0334345 0 -2.35 5.68434e-14 -1.23254e-06 -2.42428e-05 0.0547006 8 0 0 19.0988 -49.6233 26.4256 0 -45 -1 -1.84833 42.8364 -5.82436 0 -41 -2 3.1463 13.4994 6.37614 0 -7.5 12.5 -5.16027e-09 -1.26564e-05 -8.48529e-08 0 0 4 -11.5464 -9.47049 -10.3634 -8 0 -1.13687e-13 10.0674 -49.5974 7.44551 0 -45 -1 -1.13447 81.2915 1.36322 0 -41 -2 -10.091 -2.06754 17.4672 0 -7.5 12.5 1.80215e-06 -23.1834 3.95722e-06 -1.13687e-13 0 4 6.21812 23.9377 10.7035 
